<mxfile host="app.diagrams.net" modified="2021-11-09T13:05:53.499Z" agent="5.0 (Macintosh; Intel Mac OS X 10_15_7) AppleWebKit/537.36 (KHTML, like Gecko) Chrome/94.0.4606.81 Safari/537.36" etag="KPkZE320hsY01zxyqM0l" version="15.7.0" type="github">
  <diagram id="9CZ0PQ02ZsPHdG1DtoYy" name="Page-1">
    <mxGraphModel dx="946" dy="577" grid="1" gridSize="10" guides="1" tooltips="1" connect="1" arrows="1" fold="1" page="1" pageScale="1" pageWidth="827" pageHeight="1169" math="0" shadow="0">
      <root>
        <mxCell id="0" />
        <mxCell id="1" parent="0" />
        <mxCell id="aA7OUgeE8yupM1yqJdEg-1" value="" style="rounded=0;whiteSpace=wrap;html=1;sketch=1;fillColor=#f5f5f5;fontColor=#333333;strokeColor=#666666;" vertex="1" parent="1">
          <mxGeometry x="150" y="130" width="310" height="190" as="geometry" />
        </mxCell>
        <mxCell id="aA7OUgeE8yupM1yqJdEg-6" style="edgeStyle=orthogonalEdgeStyle;orthogonalLoop=1;jettySize=auto;html=1;exitX=0.5;exitY=1;exitDx=0;exitDy=0;entryX=0.5;entryY=0;entryDx=0;entryDy=0;curved=1;" edge="1" parent="1" source="aA7OUgeE8yupM1yqJdEg-3" target="aA7OUgeE8yupM1yqJdEg-4">
          <mxGeometry relative="1" as="geometry" />
        </mxCell>
        <mxCell id="aA7OUgeE8yupM1yqJdEg-7" style="edgeStyle=orthogonalEdgeStyle;orthogonalLoop=1;jettySize=auto;html=1;exitX=0.5;exitY=1;exitDx=0;exitDy=0;entryX=0.5;entryY=0;entryDx=0;entryDy=0;curved=1;" edge="1" parent="1" source="aA7OUgeE8yupM1yqJdEg-3" target="aA7OUgeE8yupM1yqJdEg-5">
          <mxGeometry relative="1" as="geometry" />
        </mxCell>
        <mxCell id="aA7OUgeE8yupM1yqJdEg-3" value="写节点" style="rounded=1;whiteSpace=wrap;html=1;sketch=1;" vertex="1" parent="1">
          <mxGeometry x="260" y="150" width="90" height="50" as="geometry" />
        </mxCell>
        <mxCell id="aA7OUgeE8yupM1yqJdEg-4" value="读节点" style="rounded=1;whiteSpace=wrap;html=1;sketch=1;" vertex="1" parent="1">
          <mxGeometry x="190" y="240" width="90" height="50" as="geometry" />
        </mxCell>
        <mxCell id="aA7OUgeE8yupM1yqJdEg-5" value="读节点" style="rounded=1;whiteSpace=wrap;html=1;sketch=1;" vertex="1" parent="1">
          <mxGeometry x="330" y="240" width="90" height="50" as="geometry" />
        </mxCell>
        <mxCell id="aA7OUgeE8yupM1yqJdEg-8" value="db group" style="text;html=1;strokeColor=none;fillColor=none;align=center;verticalAlign=middle;whiteSpace=wrap;rounded=0;sketch=1;" vertex="1" parent="1">
          <mxGeometry x="160" y="140" width="60" height="30" as="geometry" />
        </mxCell>
      </root>
    </mxGraphModel>
  </diagram>
</mxfile>
